<?xml version="1.0" encoding="UTF-8" standalone="no"?>
<!DOCTYPE svg PUBLIC "-//W3C//DTD SVG 1.1//EN"
 "http://www.w3.org/Graphics/SVG/1.1/DTD/svg11.dtd">
<!-- Generated by graphviz version 2.43.0 (0)
 -->
<!-- Title: G Pages: 1 -->
<svg width="2471pt" height="688pt"
 viewBox="0.00 0.00 2471.00 688.00" xmlns="http://www.w3.org/2000/svg" xmlns:xlink="http://www.w3.org/1999/xlink">
<g id="graph0" class="graph" transform="scale(1 1) rotate(0) translate(4 684)">
<title>G</title>
<polygon fill="white" stroke="transparent" points="-4,4 -4,-684 2467,-684 2467,4 -4,4"/>
<!-- data.alicloud_images.default -->
<g id="node1" class="node">
<title>data.alicloud_images.default</title>
<polygon fill="none" stroke="black" points="906,-464 691,-464 691,-428 906,-428 906,-464"/>
<text text-anchor="middle" x="798.5" y="-442.3" font-family="sans-serif" font-size="14.00">data.alicloud_images.default</text>
</g>
<!-- data.alicloud_zones.available -->
<g id="node2" class="node">
<title>data.alicloud_zones.available</title>
<polygon fill="none" stroke="black" points="620,-518 402,-518 402,-482 620,-482 620,-518"/>
<text text-anchor="middle" x="511" y="-496.3" font-family="sans-serif" font-size="14.00">data.alicloud_zones.available</text>
</g>
<!-- data.dns_a_record_set.example_com -->
<g id="node3" class="node">
<title>data.dns_a_record_set.example_com</title>
<polygon fill="none" stroke="black" points="933.5,-225 663.5,-225 663.5,-189 933.5,-189 933.5,-225"/>
<text text-anchor="middle" x="798.5" y="-203.3" font-family="sans-serif" font-size="14.00">data.dns_a_record_set.example_com</text>
</g>
<!-- data.dns_a_record_set.secureweb_com -->
<g id="node4" class="node">
<title>data.dns_a_record_set.secureweb_com</title>
<polygon fill="none" stroke="black" points="941,-36 656,-36 656,0 941,0 941,-36"/>
<text text-anchor="middle" x="798.5" y="-14.3" font-family="sans-serif" font-size="14.00">data.dns_a_record_set.secureweb_com</text>
</g>
<!-- alicloud_alb_listener.altium -->
<g id="node5" class="node">
<title>alicloud_alb_listener.altium</title>
<polygon fill="none" stroke="black" points="2384.5,-499 2181.5,-499 2181.5,-463 2384.5,-463 2384.5,-499"/>
<text text-anchor="middle" x="2283" y="-477.3" font-family="sans-serif" font-size="14.00">alicloud_alb_listener.altium</text>
</g>
<!-- alicloud_alb_load_balancer.altium -->
<g id="node6" class="node">
<title>alicloud_alb_load_balancer.altium</title>
<polygon fill="none" stroke="black" points="2011,-518 1764,-518 1764,-482 2011,-482 2011,-518"/>
<text text-anchor="middle" x="1887.5" y="-496.3" font-family="sans-serif" font-size="14.00">alicloud_alb_load_balancer.altium</text>
</g>
<!-- alicloud_alb_listener.altium&#45;&gt;alicloud_alb_load_balancer.altium -->
<g id="edge1" class="edge">
<title>alicloud_alb_listener.altium&#45;&gt;alicloud_alb_load_balancer.altium</title>
<path fill="none" stroke="black" d="M2181.43,-485.86C2132.76,-488.21 2073.68,-491.06 2021.36,-493.58"/>
<polygon fill="black" stroke="black" points="2021.16,-490.09 2011.34,-494.07 2021.49,-497.08 2021.16,-490.09"/>
</g>
<!-- alicloud_alb_server_group.altium -->
<g id="node7" class="node">
<title>alicloud_alb_server_group.altium</title>
<polygon fill="none" stroke="black" points="2009.5,-572 1765.5,-572 1765.5,-536 2009.5,-536 2009.5,-572"/>
<text text-anchor="middle" x="1887.5" y="-550.3" font-family="sans-serif" font-size="14.00">alicloud_alb_server_group.altium</text>
</g>
<!-- alicloud_alb_listener.altium&#45;&gt;alicloud_alb_server_group.altium -->
<g id="edge2" class="edge">
<title>alicloud_alb_listener.altium&#45;&gt;alicloud_alb_server_group.altium</title>
<path fill="none" stroke="black" d="M2203.35,-499.03C2162.75,-508.03 2112.34,-518.73 2067,-527 2051.68,-529.79 2035.58,-532.52 2019.59,-535.1"/>
<polygon fill="black" stroke="black" points="2018.97,-531.66 2009.65,-536.69 2020.07,-538.57 2018.97,-531.66"/>
</g>
<!-- alicloud_instance.altium -->
<g id="node18" class="node">
<title>alicloud_instance.altium</title>
<polygon fill="none" stroke="black" points="1272.5,-468 1089.5,-468 1089.5,-432 1272.5,-432 1272.5,-468"/>
<text text-anchor="middle" x="1181" y="-446.3" font-family="sans-serif" font-size="14.00">alicloud_instance.altium</text>
</g>
<!-- alicloud_alb_listener.altium&#45;&gt;alicloud_instance.altium -->
<g id="edge3" class="edge">
<title>alicloud_alb_listener.altium&#45;&gt;alicloud_instance.altium</title>
<path fill="none" stroke="black" d="M2233.75,-462.86C2190.73,-447.7 2125.66,-427.29 2067,-419 1918.4,-398 1481.75,-427.06 1282.81,-442.04"/>
<polygon fill="black" stroke="black" points="1282.36,-438.56 1272.65,-442.81 1282.89,-445.54 1282.36,-438.56"/>
</g>
<!-- alicloud_ssl_certificates_service_certificate.altium -->
<g id="node29" class="node">
<title>alicloud_ssl_certificates_service_certificate.altium</title>
<polygon fill="none" stroke="black" points="2067,-464 1708,-464 1708,-428 2067,-428 2067,-464"/>
<text text-anchor="middle" x="1887.5" y="-442.3" font-family="sans-serif" font-size="14.00">alicloud_ssl_certificates_service_certificate.altium</text>
</g>
<!-- alicloud_alb_listener.altium&#45;&gt;alicloud_ssl_certificates_service_certificate.altium -->
<g id="edge4" class="edge">
<title>alicloud_alb_listener.altium&#45;&gt;alicloud_ssl_certificates_service_certificate.altium</title>
<path fill="none" stroke="black" d="M2181.43,-472.05C2149.58,-469.22 2113.28,-465.99 2077.33,-462.8"/>
<polygon fill="black" stroke="black" points="2077.47,-459.29 2067.2,-461.89 2076.85,-466.27 2077.47,-459.29"/>
</g>
<!-- alicloud_ess_scaling_group.altium -->
<g id="node15" class="node">
<title>alicloud_ess_scaling_group.altium</title>
<polygon fill="none" stroke="black" points="1672,-518 1421,-518 1421,-482 1672,-482 1672,-518"/>
<text text-anchor="middle" x="1546.5" y="-496.3" font-family="sans-serif" font-size="14.00">alicloud_ess_scaling_group.altium</text>
</g>
<!-- alicloud_alb_load_balancer.altium&#45;&gt;alicloud_ess_scaling_group.altium -->
<g id="edge5" class="edge">
<title>alicloud_alb_load_balancer.altium&#45;&gt;alicloud_ess_scaling_group.altium</title>
<path fill="none" stroke="black" d="M1763.63,-500C1737.25,-500 1709.24,-500 1682.43,-500"/>
<polygon fill="black" stroke="black" points="1682.22,-496.5 1672.22,-500 1682.22,-503.5 1682.22,-496.5"/>
</g>
<!-- alicloud_alb_server_group.altium&#45;&gt;alicloud_ess_scaling_group.altium -->
<g id="edge6" class="edge">
<title>alicloud_alb_server_group.altium&#45;&gt;alicloud_ess_scaling_group.altium</title>
<path fill="none" stroke="black" d="M1765.48,-535.97C1746.24,-533.03 1726.57,-529.97 1708,-527 1693.47,-524.68 1678.2,-522.18 1663.11,-519.68"/>
<polygon fill="black" stroke="black" points="1663.66,-516.23 1653.22,-518.04 1662.51,-523.13 1663.66,-516.23"/>
</g>
<!-- alicloud_ecs_key_pair.altium -->
<g id="node8" class="node">
<title>alicloud_ecs_key_pair.altium</title>
<polygon fill="none" stroke="black" points="904,-410 693,-410 693,-374 904,-374 904,-410"/>
<text text-anchor="middle" x="798.5" y="-388.3" font-family="sans-serif" font-size="14.00">alicloud_ecs_key_pair.altium</text>
</g>
<!-- alicloud_resource_manager_resource_group.altium -->
<g id="node19" class="node">
<title>alicloud_resource_manager_resource_group.altium</title>
<polygon fill="none" stroke="black" points="366,-383 0,-383 0,-347 366,-347 366,-383"/>
<text text-anchor="middle" x="183" y="-361.3" font-family="sans-serif" font-size="14.00">alicloud_resource_manager_resource_group.altium</text>
</g>
<!-- alicloud_ecs_key_pair.altium&#45;&gt;alicloud_resource_manager_resource_group.altium -->
<g id="edge7" class="edge">
<title>alicloud_ecs_key_pair.altium&#45;&gt;alicloud_resource_manager_resource_group.altium</title>
<path fill="none" stroke="black" d="M692.86,-394.75C668.92,-395.27 643.58,-395.73 620,-396 523.12,-397.09 498.65,-402.84 402,-396 368.57,-393.63 332.46,-389.25 299.44,-384.51"/>
<polygon fill="black" stroke="black" points="299.69,-381.01 289.29,-383.03 298.68,-387.94 299.69,-381.01"/>
</g>
<!-- tls_private_key.altium -->
<g id="node32" class="node">
<title>tls_private_key.altium</title>
<polygon fill="none" stroke="black" points="593.5,-387 428.5,-387 428.5,-351 593.5,-351 593.5,-387"/>
<text text-anchor="middle" x="511" y="-365.3" font-family="sans-serif" font-size="14.00">tls_private_key.altium</text>
</g>
<!-- alicloud_ecs_key_pair.altium&#45;&gt;tls_private_key.altium -->
<g id="edge8" class="edge">
<title>alicloud_ecs_key_pair.altium&#45;&gt;tls_private_key.altium</title>
<path fill="none" stroke="black" d="M692.81,-383.57C663.76,-381.23 632.43,-378.7 604.15,-376.42"/>
<polygon fill="black" stroke="black" points="604.12,-372.91 593.88,-375.6 603.56,-379.89 604.12,-372.91"/>
</g>
<!-- alicloud_ecs_launch_template.altium -->
<g id="node9" class="node">
<title>alicloud_ecs_launch_template.altium</title>
<polygon fill="none" stroke="black" points="1315.5,-414 1046.5,-414 1046.5,-378 1315.5,-378 1315.5,-414"/>
<text text-anchor="middle" x="1181" y="-392.3" font-family="sans-serif" font-size="14.00">alicloud_ecs_launch_template.altium</text>
</g>
<!-- alicloud_ecs_launch_template.altium&#45;&gt;data.alicloud_images.default -->
<g id="edge9" class="edge">
<title>alicloud_ecs_launch_template.altium&#45;&gt;data.alicloud_images.default</title>
<path fill="none" stroke="black" d="M1046.38,-413.56C1003.95,-419.13 957.38,-425.25 916.24,-430.66"/>
<polygon fill="black" stroke="black" points="915.63,-427.21 906.17,-431.98 916.54,-434.15 915.63,-427.21"/>
</g>
<!-- alicloud_ecs_launch_template.altium&#45;&gt;alicloud_ecs_key_pair.altium -->
<g id="edge10" class="edge">
<title>alicloud_ecs_launch_template.altium&#45;&gt;alicloud_ecs_key_pair.altium</title>
<path fill="none" stroke="black" d="M1046.38,-394.6C1003.26,-394.14 955.86,-393.64 914.23,-393.21"/>
<polygon fill="black" stroke="black" points="914.09,-389.7 904.05,-393.1 914.01,-396.7 914.09,-389.7"/>
</g>
<!-- alicloud_security_group.app -->
<g id="node20" class="node">
<title>alicloud_security_group.app</title>
<polygon fill="none" stroke="black" points="903.5,-171 693.5,-171 693.5,-135 903.5,-135 903.5,-171"/>
<text text-anchor="middle" x="798.5" y="-149.3" font-family="sans-serif" font-size="14.00">alicloud_security_group.app</text>
</g>
<!-- alicloud_ecs_launch_template.altium&#45;&gt;alicloud_security_group.app -->
<g id="edge11" class="edge">
<title>alicloud_ecs_launch_template.altium&#45;&gt;alicloud_security_group.app</title>
<path fill="none" stroke="black" d="M1046.28,-401.72C1020.64,-396.76 995.92,-386.89 977,-369 914.87,-310.25 1001.46,-240.47 941,-180 933.08,-172.08 923.6,-166.1 913.35,-161.63"/>
<polygon fill="black" stroke="black" points="914.33,-158.26 903.74,-157.94 911.82,-164.79 914.33,-158.26"/>
</g>
<!-- alicloud_ess_alarm.high_cpu -->
<g id="node10" class="node">
<title>alicloud_ess_alarm.high_cpu</title>
<polygon fill="none" stroke="black" points="2389.5,-399 2176.5,-399 2176.5,-363 2389.5,-363 2389.5,-399"/>
<text text-anchor="middle" x="2283" y="-377.3" font-family="sans-serif" font-size="14.00">alicloud_ess_alarm.high_cpu</text>
</g>
<!-- alicloud_ess_scaling_rule.scale_out -->
<g id="node17" class="node">
<title>alicloud_ess_scaling_rule.scale_out</title>
<polygon fill="none" stroke="black" points="2016.5,-372 1758.5,-372 1758.5,-336 2016.5,-336 2016.5,-372"/>
<text text-anchor="middle" x="1887.5" y="-350.3" font-family="sans-serif" font-size="14.00">alicloud_ess_scaling_rule.scale_out</text>
</g>
<!-- alicloud_ess_alarm.high_cpu&#45;&gt;alicloud_ess_scaling_rule.scale_out -->
<g id="edge12" class="edge">
<title>alicloud_ess_alarm.high_cpu&#45;&gt;alicloud_ess_scaling_rule.scale_out</title>
<path fill="none" stroke="black" d="M2176.29,-373.75C2130.29,-370.59 2075.77,-366.85 2026.62,-363.48"/>
<polygon fill="black" stroke="black" points="2026.76,-359.98 2016.54,-362.79 2026.28,-366.96 2026.76,-359.98"/>
</g>
<!-- alicloud_ess_alarm.high_memory -->
<g id="node11" class="node">
<title>alicloud_ess_alarm.high_memory</title>
<polygon fill="none" stroke="black" points="2405.5,-345 2160.5,-345 2160.5,-309 2405.5,-309 2405.5,-345"/>
<text text-anchor="middle" x="2283" y="-323.3" font-family="sans-serif" font-size="14.00">alicloud_ess_alarm.high_memory</text>
</g>
<!-- alicloud_ess_alarm.high_memory&#45;&gt;alicloud_ess_scaling_rule.scale_out -->
<g id="edge13" class="edge">
<title>alicloud_ess_alarm.high_memory&#45;&gt;alicloud_ess_scaling_rule.scale_out</title>
<path fill="none" stroke="black" d="M2160.46,-335.34C2118.15,-338.24 2070.38,-341.52 2026.81,-344.51"/>
<polygon fill="black" stroke="black" points="2026.45,-341.03 2016.71,-345.2 2026.93,-348.01 2026.45,-341.03"/>
</g>
<!-- alicloud_ess_alarm.low_cpu -->
<g id="node12" class="node">
<title>alicloud_ess_alarm.low_cpu</title>
<polygon fill="none" stroke="black" points="2386,-680 2180,-680 2180,-644 2386,-644 2386,-680"/>
<text text-anchor="middle" x="2283" y="-658.3" font-family="sans-serif" font-size="14.00">alicloud_ess_alarm.low_cpu</text>
</g>
<!-- alicloud_ess_scaling_rule.scale_in -->
<g id="node16" class="node">
<title>alicloud_ess_scaling_rule.scale_in</title>
<polygon fill="none" stroke="black" points="2011.5,-626 1763.5,-626 1763.5,-590 2011.5,-590 2011.5,-626"/>
<text text-anchor="middle" x="1887.5" y="-604.3" font-family="sans-serif" font-size="14.00">alicloud_ess_scaling_rule.scale_in</text>
</g>
<!-- alicloud_ess_alarm.low_cpu&#45;&gt;alicloud_ess_scaling_rule.scale_in -->
<g id="edge14" class="edge">
<title>alicloud_ess_alarm.low_cpu&#45;&gt;alicloud_ess_scaling_rule.scale_in</title>
<path fill="none" stroke="black" d="M2179.9,-647.99C2131.55,-641.35 2073.19,-633.34 2021.44,-626.24"/>
<polygon fill="black" stroke="black" points="2021.9,-622.77 2011.52,-624.88 2020.95,-629.71 2021.9,-622.77"/>
</g>
<!-- alicloud_ess_alarm.low_memory -->
<g id="node13" class="node">
<title>alicloud_ess_alarm.low_memory</title>
<polygon fill="none" stroke="black" points="2402,-626 2164,-626 2164,-590 2402,-590 2402,-626"/>
<text text-anchor="middle" x="2283" y="-604.3" font-family="sans-serif" font-size="14.00">alicloud_ess_alarm.low_memory</text>
</g>
<!-- alicloud_ess_alarm.low_memory&#45;&gt;alicloud_ess_scaling_rule.scale_in -->
<g id="edge15" class="edge">
<title>alicloud_ess_alarm.low_memory&#45;&gt;alicloud_ess_scaling_rule.scale_in</title>
<path fill="none" stroke="black" d="M2163.94,-608C2119.12,-608 2067.78,-608 2021.66,-608"/>
<polygon fill="black" stroke="black" points="2021.6,-604.5 2011.6,-608 2021.6,-611.5 2021.6,-604.5"/>
</g>
<!-- alicloud_ess_alb_server_group_attachment.altium -->
<g id="node14" class="node">
<title>alicloud_ess_alb_server_group_attachment.altium</title>
<polygon fill="none" stroke="black" points="2463,-572 2103,-572 2103,-536 2463,-536 2463,-572"/>
<text text-anchor="middle" x="2283" y="-550.3" font-family="sans-serif" font-size="14.00">alicloud_ess_alb_server_group_attachment.altium</text>
</g>
<!-- alicloud_ess_alb_server_group_attachment.altium&#45;&gt;alicloud_alb_server_group.altium -->
<g id="edge16" class="edge">
<title>alicloud_ess_alb_server_group_attachment.altium&#45;&gt;alicloud_alb_server_group.altium</title>
<path fill="none" stroke="black" d="M2102.81,-554C2074.84,-554 2046.39,-554 2019.75,-554"/>
<polygon fill="black" stroke="black" points="2019.63,-550.5 2009.63,-554 2019.63,-557.5 2019.63,-550.5"/>
</g>
<!-- alicloud_ess_scaling_group.altium&#45;&gt;alicloud_ecs_launch_template.altium -->
<g id="edge17" class="edge">
<title>alicloud_ess_scaling_group.altium&#45;&gt;alicloud_ecs_launch_template.altium</title>
<path fill="none" stroke="black" d="M1515.3,-481.93C1483.87,-464.01 1432.68,-437.22 1385,-423 1366.04,-417.35 1345.73,-412.88 1325.56,-409.34"/>
<polygon fill="black" stroke="black" points="1326.11,-405.88 1315.67,-407.68 1324.95,-412.79 1326.11,-405.88"/>
</g>
<!-- alicloud_vswitch.altium -->
<g id="node31" class="node">
<title>alicloud_vswitch.altium</title>
<polygon fill="none" stroke="black" points="887,-518 710,-518 710,-482 887,-482 887,-518"/>
<text text-anchor="middle" x="798.5" y="-496.3" font-family="sans-serif" font-size="14.00">alicloud_vswitch.altium</text>
</g>
<!-- alicloud_ess_scaling_group.altium&#45;&gt;alicloud_vswitch.altium -->
<g id="edge18" class="edge">
<title>alicloud_ess_scaling_group.altium&#45;&gt;alicloud_vswitch.altium</title>
<path fill="none" stroke="black" d="M1420.64,-500C1273.39,-500 1031.72,-500 897.36,-500"/>
<polygon fill="black" stroke="black" points="897.08,-496.5 887.08,-500 897.08,-503.5 897.08,-496.5"/>
</g>
<!-- alicloud_ess_scaling_rule.scale_in&#45;&gt;alicloud_ess_scaling_group.altium -->
<g id="edge19" class="edge">
<title>alicloud_ess_scaling_rule.scale_in&#45;&gt;alicloud_ess_scaling_group.altium</title>
<path fill="none" stroke="black" d="M1763.37,-594.62C1744.6,-591.08 1725.62,-586.62 1708,-581 1663.75,-566.89 1616.71,-541.81 1585.08,-523.29"/>
<polygon fill="black" stroke="black" points="1586.56,-520.1 1576.18,-518.01 1582.99,-526.12 1586.56,-520.1"/>
</g>
<!-- alicloud_ess_scaling_rule.scale_out&#45;&gt;alicloud_ess_scaling_group.altium -->
<g id="edge20" class="edge">
<title>alicloud_ess_scaling_rule.scale_out&#45;&gt;alicloud_ess_scaling_group.altium</title>
<path fill="none" stroke="black" d="M1831.55,-372.12C1795.92,-384.34 1748.71,-401.39 1708,-419 1666.94,-436.76 1621.53,-460.03 1589.53,-477.07"/>
<polygon fill="black" stroke="black" points="1587.63,-474.12 1580.46,-481.92 1590.93,-480.29 1587.63,-474.12"/>
</g>
<!-- alicloud_instance.altium&#45;&gt;data.alicloud_images.default -->
<g id="edge21" class="edge">
<title>alicloud_instance.altium&#45;&gt;data.alicloud_images.default</title>
<path fill="none" stroke="black" d="M1089.34,-449.05C1037.51,-448.5 971.93,-447.81 916.27,-447.23"/>
<polygon fill="black" stroke="black" points="916.04,-443.72 906,-447.12 915.96,-450.72 916.04,-443.72"/>
</g>
<!-- alicloud_instance.altium&#45;&gt;alicloud_ecs_key_pair.altium -->
<g id="edge22" class="edge">
<title>alicloud_instance.altium&#45;&gt;alicloud_ecs_key_pair.altium</title>
<path fill="none" stroke="black" d="M1089.44,-438.76C1054.29,-434.18 1013.72,-428.65 977,-423 954.78,-419.58 931.05,-415.64 908.4,-411.74"/>
<polygon fill="black" stroke="black" points="908.88,-408.27 898.43,-410.01 907.68,-415.17 908.88,-408.27"/>
</g>
<!-- alicloud_security_group.db -->
<g id="node21" class="node">
<title>alicloud_security_group.db</title>
<polygon fill="none" stroke="black" points="899.5,-333 697.5,-333 697.5,-297 899.5,-297 899.5,-333"/>
<text text-anchor="middle" x="798.5" y="-311.3" font-family="sans-serif" font-size="14.00">alicloud_security_group.db</text>
</g>
<!-- alicloud_instance.altium&#45;&gt;alicloud_security_group.db -->
<g id="edge23" class="edge">
<title>alicloud_instance.altium&#45;&gt;alicloud_security_group.db</title>
<path fill="none" stroke="black" d="M1089.28,-454.38C1051.95,-452.2 1009.85,-444.23 977,-423 951.52,-406.53 964.64,-384.02 941,-365 925.96,-352.9 907.77,-343.62 889.52,-336.53"/>
<polygon fill="black" stroke="black" points="890.58,-333.19 879.99,-333.02 888.17,-339.76 890.58,-333.19"/>
</g>
<!-- alicloud_instance.altium&#45;&gt;alicloud_vswitch.altium -->
<g id="edge24" class="edge">
<title>alicloud_instance.altium&#45;&gt;alicloud_vswitch.altium</title>
<path fill="none" stroke="black" d="M1089.34,-461.91C1031.47,-469.52 956.48,-479.37 897.28,-487.15"/>
<polygon fill="black" stroke="black" points="896.63,-483.71 887.17,-488.48 897.54,-490.65 896.63,-483.71"/>
</g>
<!-- alicloud_vpc.altium -->
<g id="node30" class="node">
<title>alicloud_vpc.altium</title>
<polygon fill="none" stroke="black" points="585.5,-333 436.5,-333 436.5,-297 585.5,-297 585.5,-333"/>
<text text-anchor="middle" x="511" y="-311.3" font-family="sans-serif" font-size="14.00">alicloud_vpc.altium</text>
</g>
<!-- alicloud_security_group.app&#45;&gt;alicloud_vpc.altium -->
<g id="edge25" class="edge">
<title>alicloud_security_group.app&#45;&gt;alicloud_vpc.altium</title>
<path fill="none" stroke="black" d="M693.22,-165.87C680.31,-169.48 667.59,-174.1 656,-180 603.86,-206.54 557.21,-257.73 531.93,-288.89"/>
<polygon fill="black" stroke="black" points="529.17,-286.73 525.67,-296.72 534.64,-291.09 529.17,-286.73"/>
</g>
<!-- alicloud_security_group.db&#45;&gt;alicloud_vpc.altium -->
<g id="edge26" class="edge">
<title>alicloud_security_group.db&#45;&gt;alicloud_vpc.altium</title>
<path fill="none" stroke="black" d="M697.24,-315C664.19,-315 627.79,-315 596.07,-315"/>
<polygon fill="black" stroke="black" points="595.94,-311.5 585.94,-315 595.94,-318.5 595.94,-311.5"/>
</g>
<!-- alicloud_security_group_rule.app_port_22 -->
<g id="node22" class="node">
<title>alicloud_security_group_rule.app_port_22</title>
<polygon fill="none" stroke="black" points="1333,-90 1029,-90 1029,-54 1333,-54 1333,-90"/>
<text text-anchor="middle" x="1181" y="-68.3" font-family="sans-serif" font-size="14.00">alicloud_security_group_rule.app_port_22</text>
</g>
<!-- alicloud_security_group_rule.app_port_22&#45;&gt;alicloud_security_group.app -->
<g id="edge27" class="edge">
<title>alicloud_security_group_rule.app_port_22&#45;&gt;alicloud_security_group.app</title>
<path fill="none" stroke="black" d="M1028.76,-89.34C1011.24,-92.17 993.68,-95.38 977,-99 937.75,-107.52 894.63,-120.55 860.71,-131.68"/>
<polygon fill="black" stroke="black" points="859.34,-128.45 850.95,-134.91 861.54,-135.09 859.34,-128.45"/>
</g>
<!-- alicloud_security_group_rule.app_port_80 -->
<g id="node23" class="node">
<title>alicloud_security_group_rule.app_port_80</title>
<polygon fill="none" stroke="black" points="1333,-144 1029,-144 1029,-108 1333,-108 1333,-144"/>
<text text-anchor="middle" x="1181" y="-122.3" font-family="sans-serif" font-size="14.00">alicloud_security_group_rule.app_port_80</text>
</g>
<!-- alicloud_security_group_rule.app_port_80&#45;&gt;alicloud_security_group.app -->
<g id="edge28" class="edge">
<title>alicloud_security_group_rule.app_port_80&#45;&gt;alicloud_security_group.app</title>
<path fill="none" stroke="black" d="M1028.8,-136.73C990.41,-139.45 949.81,-142.33 913.62,-144.9"/>
<polygon fill="black" stroke="black" points="913.26,-141.42 903.53,-145.62 913.75,-148.4 913.26,-141.42"/>
</g>
<!-- alicloud_security_group_rule.db_from_app -->
<g id="node24" class="node">
<title>alicloud_security_group_rule.db_from_app</title>
<polygon fill="none" stroke="black" points="1335,-252 1027,-252 1027,-216 1335,-216 1335,-252"/>
<text text-anchor="middle" x="1181" y="-230.3" font-family="sans-serif" font-size="14.00">alicloud_security_group_rule.db_from_app</text>
</g>
<!-- alicloud_security_group_rule.db_from_app&#45;&gt;alicloud_security_group.app -->
<g id="edge29" class="edge">
<title>alicloud_security_group_rule.db_from_app&#45;&gt;alicloud_security_group.app</title>
<path fill="none" stroke="black" d="M1026.75,-222.21C1009.63,-218.39 992.72,-213.42 977,-207 958.49,-199.44 959.29,-188.08 941,-180 932.26,-176.14 922.97,-172.83 913.5,-169.99"/>
<polygon fill="black" stroke="black" points="914.14,-166.53 903.57,-167.2 912.25,-173.27 914.14,-166.53"/>
</g>
<!-- alicloud_security_group_rule.db_from_app&#45;&gt;alicloud_security_group.db -->
<g id="edge30" class="edge">
<title>alicloud_security_group_rule.db_from_app&#45;&gt;alicloud_security_group.db</title>
<path fill="none" stroke="black" d="M1026.85,-251.65C1009.96,-254.4 993.07,-257.51 977,-261 937.75,-269.52 894.63,-282.55 860.71,-293.68"/>
<polygon fill="black" stroke="black" points="859.34,-290.45 850.95,-296.91 861.54,-297.09 859.34,-290.45"/>
</g>
<!-- alicloud_security_group_rule.db_port_22 -->
<g id="node25" class="node">
<title>alicloud_security_group_rule.db_port_22</title>
<polygon fill="none" stroke="black" points="1329,-360 1033,-360 1033,-324 1329,-324 1329,-360"/>
<text text-anchor="middle" x="1181" y="-338.3" font-family="sans-serif" font-size="14.00">alicloud_security_group_rule.db_port_22</text>
</g>
<!-- alicloud_security_group_rule.db_port_22&#45;&gt;alicloud_security_group.db -->
<g id="edge31" class="edge">
<title>alicloud_security_group_rule.db_port_22&#45;&gt;alicloud_security_group.db</title>
<path fill="none" stroke="black" d="M1032.89,-331.56C992,-328.66 948.3,-325.56 909.91,-322.83"/>
<polygon fill="black" stroke="black" points="909.97,-319.33 899.75,-322.11 909.47,-326.31 909.97,-319.33"/>
</g>
<!-- alicloud_security_group_rule.db_port_3306 -->
<g id="node26" class="node">
<title>alicloud_security_group_rule.db_port_3306</title>
<polygon fill="none" stroke="black" points="1338,-306 1024,-306 1024,-270 1338,-270 1338,-306"/>
<text text-anchor="middle" x="1181" y="-284.3" font-family="sans-serif" font-size="14.00">alicloud_security_group_rule.db_port_3306</text>
</g>
<!-- alicloud_security_group_rule.db_port_3306&#45;&gt;alicloud_security_group.db -->
<g id="edge32" class="edge">
<title>alicloud_security_group_rule.db_port_3306&#45;&gt;alicloud_security_group.db</title>
<path fill="none" stroke="black" d="M1023.86,-299.08C985.69,-301.79 945.62,-304.63 910.08,-307.15"/>
<polygon fill="black" stroke="black" points="909.42,-303.69 899.69,-307.89 909.91,-310.67 909.42,-303.69"/>
</g>
<!-- alicloud_security_group_rule.https_outbound_example -->
<g id="node27" class="node">
<title>alicloud_security_group_rule.https_outbound_example</title>
<polygon fill="none" stroke="black" points="1377.5,-198 984.5,-198 984.5,-162 1377.5,-162 1377.5,-198"/>
<text text-anchor="middle" x="1181" y="-176.3" font-family="sans-serif" font-size="14.00">alicloud_security_group_rule.https_outbound_example</text>
</g>
<!-- alicloud_security_group_rule.https_outbound_example&#45;&gt;data.dns_a_record_set.example_com -->
<g id="edge33" class="edge">
<title>alicloud_security_group_rule.https_outbound_example&#45;&gt;data.dns_a_record_set.example_com</title>
<path fill="none" stroke="black" d="M984.46,-193.88C970.73,-194.85 957.04,-195.82 943.67,-196.77"/>
<polygon fill="black" stroke="black" points="943.25,-193.29 933.52,-197.49 943.74,-200.27 943.25,-193.29"/>
</g>
<!-- alicloud_security_group_rule.https_outbound_example&#45;&gt;alicloud_security_group.app -->
<g id="edge34" class="edge">
<title>alicloud_security_group_rule.https_outbound_example&#45;&gt;alicloud_security_group.app</title>
<path fill="none" stroke="black" d="M984.46,-166.12C960.27,-164.41 936.2,-162.7 913.81,-161.11"/>
<polygon fill="black" stroke="black" points="913.87,-157.61 903.64,-160.39 913.37,-164.59 913.87,-157.61"/>
</g>
<!-- alicloud_security_group_rule.https_outbound_secureweb -->
<g id="node28" class="node">
<title>alicloud_security_group_rule.https_outbound_secureweb</title>
<polygon fill="none" stroke="black" points="1385,-36 977,-36 977,0 1385,0 1385,-36"/>
<text text-anchor="middle" x="1181" y="-14.3" font-family="sans-serif" font-size="14.00">alicloud_security_group_rule.https_outbound_secureweb</text>
</g>
<!-- alicloud_security_group_rule.https_outbound_secureweb&#45;&gt;data.dns_a_record_set.secureweb_com -->
<g id="edge35" class="edge">
<title>alicloud_security_group_rule.https_outbound_secureweb&#45;&gt;data.dns_a_record_set.secureweb_com</title>
<path fill="none" stroke="black" d="M976.94,-18C968.38,-18 959.85,-18 951.43,-18"/>
<polygon fill="black" stroke="black" points="951.21,-14.5 941.21,-18 951.21,-21.5 951.21,-14.5"/>
</g>
<!-- alicloud_security_group_rule.https_outbound_secureweb&#45;&gt;alicloud_security_group.app -->
<g id="edge36" class="edge">
<title>alicloud_security_group_rule.https_outbound_secureweb&#45;&gt;alicloud_security_group.app</title>
<path fill="none" stroke="black" d="M1006.89,-36.01C996.67,-38.62 986.64,-41.6 977,-45 921.19,-64.71 863.99,-103.52 830.12,-128.86"/>
<polygon fill="black" stroke="black" points="827.89,-126.16 822.03,-134.98 832.12,-131.74 827.89,-126.16"/>
</g>
<!-- alicloud_vpc.altium&#45;&gt;alicloud_resource_manager_resource_group.altium -->
<g id="edge37" class="edge">
<title>alicloud_vpc.altium&#45;&gt;alicloud_resource_manager_resource_group.altium</title>
<path fill="none" stroke="black" d="M436.43,-326.28C399.58,-331.94 353.88,-338.94 311.54,-345.44"/>
<polygon fill="black" stroke="black" points="310.78,-342.01 301.43,-346.99 311.85,-348.93 310.78,-342.01"/>
</g>
<!-- alicloud_vswitch.altium&#45;&gt;data.alicloud_zones.available -->
<g id="edge38" class="edge">
<title>alicloud_vswitch.altium&#45;&gt;data.alicloud_zones.available</title>
<path fill="none" stroke="black" d="M709.9,-500C684.76,-500 656.91,-500 630.25,-500"/>
<polygon fill="black" stroke="black" points="630.09,-496.5 620.09,-500 630.09,-503.5 630.09,-496.5"/>
</g>
<!-- alicloud_vswitch.altium&#45;&gt;alicloud_vpc.altium -->
<g id="edge39" class="edge">
<title>alicloud_vswitch.altium&#45;&gt;alicloud_vpc.altium</title>
<path fill="none" stroke="black" d="M709.66,-498.51C690.03,-494.3 670.7,-486.57 656,-473 611.64,-432.04 663.19,-384.2 620,-342 612.9,-335.06 604.3,-329.82 595.08,-325.87"/>
<polygon fill="black" stroke="black" points="596.29,-322.59 585.7,-322.35 593.83,-329.14 596.29,-322.59"/>
</g>
</g>
</svg>
